<svg xmlns="http://www.w3.org/2000/svg" viewBox="0 0 1024 1024" role="img" aria-labelledby="title desc">
  <title id="title">Moonweave Research avatar</title>
  <desc id="desc">A premium research paper and citation graph mark.</desc>
  <defs>
    <linearGradient id="paper" x1="170" y1="120" x2="860" y2="900" gradientUnits="userSpaceOnUse">
      <stop offset="0" stop-color="#ffffff"/>
      <stop offset="1" stop-color="#edf4ef"/>
    </linearGradient>
  </defs>
  <rect width="1024" height="1024" fill="#eef2f6"/>
  <circle cx="512" cy="512" r="372" fill="url(#paper)" stroke="#cfd6e2" stroke-width="20"/>
  <path d="M310 326h278l98 98v326H310z" fill="#ffffff" stroke="#111827" stroke-width="30" stroke-linejoin="round"/>
  <path d="M588 326v104h98" fill="none" stroke="#8792a0" stroke-width="20" stroke-linejoin="round"/>
  <path d="M386 482h170M386 552h230M386 622h148" stroke="#667085" stroke-width="28" stroke-linecap="round"/>
  <path d="M258 716c92-82 178-98 262-42 78 52 146 30 246-78" fill="none" stroke="#2f6f5f" stroke-width="30" stroke-linecap="round"/>
  <path d="M258 716l158-170 152 78 198-214" fill="none" stroke="#2f5f9f" stroke-width="10" stroke-linecap="round" opacity="0.7"/>
  <circle cx="258" cy="716" r="22" fill="#ffffff" stroke="#2f6f5f" stroke-width="12"/>
  <circle cx="416" cy="546" r="18" fill="#ffffff" stroke="#2f5f9f" stroke-width="10"/>
  <circle cx="568" cy="624" r="18" fill="#ffffff" stroke="#2f5f9f" stroke-width="10"/>
  <circle cx="766" cy="410" r="22" fill="#ffffff" stroke="#2f6f5f" stroke-width="12"/>
</svg>
